<?xml version="1.0" encoding="UTF-8" standalone="no"?>
<svg
   xmlns:dc="http://purl.org/dc/elements/1.1/"
   xmlns:cc="http://creativecommons.org/ns#"
   xmlns:rdf="http://www.w3.org/1999/02/22-rdf-syntax-ns#"
   xmlns:svg="http://www.w3.org/2000/svg"
   xmlns="http://www.w3.org/2000/svg"
   xmlns:sodipodi="http://sodipodi.sourceforge.net/DTD/sodipodi-0.dtd"
   xmlns:inkscape="http://www.inkscape.org/namespaces/inkscape"
   width="22"
   height="22"
   viewBox="0 0 5.8208332 5.8208335"
   version="1.1"
   id="svg8"
   sodipodi:docname="alldesktops.svg"
   inkscape:version="1.0.2 (e86c870879, 2021-01-15)">
  <defs
     id="defs2" />
  <sodipodi:namedview
     id="base"
     pagecolor="#31363b"
     bordercolor="#666666"
     borderopacity="1.0"
     inkscape:pageopacity="0.71372549"
     inkscape:pageshadow="2"
     inkscape:zoom="8.8349226"
     inkscape:cx="1.6150761"
     inkscape:cy="74.979268"
     inkscape:document-units="px"
     inkscape:current-layer="deactivated-center"
     inkscape:document-rotation="0"
     showgrid="true"
     inkscape:pagecheckerboard="true"
     units="px"
     inkscape:window-width="1920"
     inkscape:window-height="1012"
     inkscape:window-x="0"
     inkscape:window-y="35"
     inkscape:window-maximized="1"
     objecttolerance="2.8"
     gridtolerance="2.6"
     guidetolerance="3.2">
    <inkscape:grid
       type="xygrid"
       id="grid1402"
       spacingx="5.8208333"
       spacingy="5.8208333" />
  </sodipodi:namedview>
  <metadata
     id="metadata5">
    <rdf:RDF>
      <cc:Work
         rdf:about="">
        <dc:format>image/svg+xml</dc:format>
        <dc:type
           rdf:resource="http://purl.org/dc/dcmitype/StillImage" />
        <dc:title />
      </cc:Work>
    </rdf:RDF>
  </metadata>
  <g
     inkscape:label="Layer 1"
     inkscape:groupmode="layer"
     id="layer1">
    <g
       id="active-center2"
       inkscape:label=""
       transform="translate(-5.8208333)">
      <path
         id="path848-6"
         style="opacity:0.75;fill:#ffffff;fill-rule:evenodd;stroke-width:3.1291"
         d="m 10.972656,3.0117188 a 8.2499998,8.2499998 0 0 0 -8.2499998,8.2500002 8.2499998,8.2499998 0 0 0 8.2499998,8.25 8.2499998,8.2499998 0 0 0 8.25,-8.25 8.2499998,8.2499998 0 0 0 -8.25,-8.2500002 z m -0.1875,3.4609374 a 4.6900718,4.6900718 0 0 1 0.08399,0 4.6900718,4.6900718 0 0 1 4.689453,4.6894528 4.6900718,4.6900718 0 0 1 -4.689453,4.691407 4.6900718,4.6900718 0 0 1 -4.6914066,-4.691407 4.6900718,4.6900718 0 0 1 4.6074216,-4.6894528 z"
         transform="scale(0.26458333)" />
      <rect
         style="opacity:0;fill:#ff0000;fill-opacity:0.973409;fill-rule:evenodd;stroke-width:0.705644"
         id="rect1461"
         width="5.8208332"
         height="5.8208332"
         x="0"
         y="0" />
    </g>
    <g
       id="hover-center2"
       transform="translate(-5.8208332,5.8208336)"
       inkscape:label="">
      <rect
         style="opacity:0;fill:#ff0000;fill-opacity:0.973409;fill-rule:evenodd;stroke-width:0.705644"
         id="rect1461-5"
         width="5.8208332"
         height="5.8208332"
         x="0"
         y="0" />
      <path
         id="path848"
         style="opacity:1;fill:#ffffff;fill-rule:evenodd;stroke-width:3.1291"
         d="M 11,24.75 A 8.2499998,8.2499998 0 0 0 2.75,33 8.2499998,8.2499998 0 0 0 11,41.25 8.2499998,8.2499998 0 0 0 19.25,33 8.2499998,8.2499998 0 0 0 11,24.75 Z m -0.214844,3.441406 a 4.6900718,4.6900718 0 0 1 0.08399,0 4.6900718,4.6900718 0 0 1 4.689453,4.689453 4.6900718,4.6900718 0 0 1 -4.689453,4.689453 4.6900718,4.6900718 0 0 1 -4.6914066,-4.689453 4.6900718,4.6900718 0 0 1 4.6074216,-4.689453 z"
         transform="matrix(0.26458333,0,0,0.26458333,-1.1048991e-7,-5.8208334)" />
    </g>
    <g
       id="pressed-center2"
       transform="translate(-5.8208333,11.641667)"
       inkscape:label="">
      <circle
         style="fill:#ffffff;fill-rule:evenodd;stroke-width:0.827909"
         id="path848-3"
         cx="2.9031179"
         cy="2.8901556"
         r="2.1828125" />
      <rect
         style="opacity:0;fill:#ff0000;fill-opacity:0.973409;fill-rule:evenodd;stroke-width:0.705644"
         id="rect1461-5-6"
         width="5.8208332"
         height="5.8208332"
         x="0"
         y="0" />
    </g>
    <g
       id="inactive-center2"
       transform="translate(-5.8208332,17.4625)">
      <path
         id="path848-7"
         style="opacity:0.75;fill:#bfbfbf;fill-opacity:1;fill-rule:evenodd;stroke-width:3.1291"
         d="m 11.078125,68.730469 a 8.2499998,8.2499998 0 0 0 -8.09375,8.25 8.2499998,8.2499998 0 0 0 8.25,8.25 8.2499998,8.2499998 0 0 0 8.25,-8.25 8.2499998,8.2499998 0 0 0 -8.25,-8.25 8.2499998,8.2499998 0 0 0 -0.15625,0 z m 0.136719,3.52539 a 4.6900718,4.6900718 0 0 1 4.689453,4.691407 4.6900718,4.6900718 0 0 1 -4.689453,4.689453 4.6900718,4.6900718 0 0 1 -4.6894534,-4.689453 4.6900718,4.6900718 0 0 1 4.6894534,-4.691407 z"
         transform="matrix(0.26458333,0,0,0.26458333,-1.1048991e-7,-17.4625)" />
      <rect
         style="opacity:0;fill:#ff0000;fill-opacity:0.973409;fill-rule:evenodd;stroke-width:0.705644"
         id="rect1461-5-1"
         width="5.8208332"
         height="5.8208332"
         x="0"
         y="0" />
    </g>
    <g
       id="deactivated-center2"
       transform="translate(-5.8208332,23.283333)">
      <rect
         style="opacity:0;fill:#ff0000;fill-opacity:0.973409;fill-rule:evenodd;stroke-width:0.705644"
         id="rect1461-5-9"
         width="5.8208332"
         height="5.8208332"
         x="0"
         y="0" />
      <path
         id="path848-5"
         style="opacity:0.75;fill:#bfbfbf;fill-opacity:1;fill-rule:evenodd;stroke-width:3.1291"
         d="m 11.191406,90.880859 a 8.2499998,8.2499998 0 0 0 -8.2499998,8.25 8.2499998,8.2499998 0 0 0 8.2499998,8.250001 8.2499998,8.2499998 0 0 0 8.25,-8.250001 8.2499998,8.2499998 0 0 0 -8.25,-8.25 z m -0.228515,3.628907 a 4.6900718,4.6900718 0 0 1 0.08203,0 4.6900718,4.6900718 0 0 1 4.689453,4.689453 4.6900718,4.6900718 0 0 1 -4.689453,4.691401 4.6900718,4.6900718 0 0 1 -4.6894532,-4.691401 4.6900718,4.6900718 0 0 1 4.6074222,-4.689453 z"
         transform="matrix(0.26458333,0,0,0.26458333,-1.1048994e-7,-23.283333)" />
    </g>
    <g
       id="active-center">
      <path
         id="path849"
         style="opacity:0.75;fill:#ffffff;fill-opacity:1;fill-rule:evenodd;stroke-width:2.29841"
         d="M 9.0234375 2.6289062 A 6.3838008 6.3838008 0 0 0 2.640625 9.0136719 A 6.3838008 6.3838008 0 0 0 9.0234375 15.396484 A 6.3838008 6.3838008 0 0 0 11.367188 14.951172 L 15.535156 19.121094 C 16.550582 20.13652 18.185746 20.13652 19.201172 19.121094 C 20.216598 18.105668 20.216598 16.470504 19.201172 15.455078 L 15 11.253906 A 6.3838008 6.3838008 0 0 0 15.408203 9.0136719 A 6.3838008 6.3838008 0 0 0 9.0234375 2.6289062 z M 8.9960938 6.0917969 A 2.9011088 2.9011088 0 0 1 11.898438 8.9921875 A 2.9011088 2.9011088 0 0 1 8.9960938 11.894531 A 2.9011088 2.9011088 0 0 1 6.0957031 8.9921875 A 2.9011088 2.9011088 0 0 1 8.9960938 6.0917969 z "
         transform="scale(0.26458333)" />
      <rect
         style="opacity:0;fill:#ffffff;fill-opacity:1;fill-rule:evenodd;stroke-width:0.705644"
         id="rect859"
         width="5.8208332"
         height="5.8208332"
         x="0"
         y="0"
         ry="0" />
    </g>
    <g
       id="hover-center"
       transform="translate(9.3823232e-8,5.8208334)">
      <path
         id="path849-6"
         style="opacity:1;fill:#ffffff;fill-opacity:1;fill-rule:evenodd;stroke-width:2.29841"
         d="M 9.0234375,2.6289062 A 6.3838008,6.3838008 0 0 0 2.640625,9.0136719 6.3838008,6.3838008 0 0 0 9.0234375,15.396484 6.3838008,6.3838008 0 0 0 11.367188,14.951172 l 4.167968,4.169922 c 1.015426,1.015426 2.65059,1.015426 3.666016,0 1.015426,-1.015426 1.015426,-2.65059 0,-3.666016 L 15,11.253906 A 6.3838008,6.3838008 0 0 0 15.408203,9.0136719 6.3838008,6.3838008 0 0 0 9.0234375,2.6289062 Z M 8.9960938,6.0917969 A 2.9011088,2.9011088 0 0 1 11.898438,8.9921875 2.9011088,2.9011088 0 0 1 8.9960938,11.894531 2.9011088,2.9011088 0 0 1 6.0957031,8.9921875 2.9011088,2.9011088 0 0 1 8.9960938,6.0917969 Z"
         transform="scale(0.26458333)" />
      <rect
         style="opacity:0;fill:#ffffff;fill-opacity:1;fill-rule:evenodd;stroke-width:0.705644"
         id="rect859-7"
         width="5.8208332"
         height="5.8208332"
         x="0"
         y="0"
         ry="0" />
    </g>
    <g
       id="pressed-center"
       transform="translate(9.3823292e-8,11.397695)">
      <path
         id="path849-3"
         style="opacity:1;fill:#ffffff;fill-opacity:1;fill-rule:evenodd;stroke-width:2.29841"
         d="M 9.0234375,2.6289062 C 5.4977708,2.629452 2.6400921,5.4880052 2.640625,9.0136719 c 5.459e-4,3.5249041 2.8579087,6.3822661 6.3828125,6.3828121 0.8022918,1.58e-4 1.5974235,-0.150917 2.3437505,-0.445312 l 4.167968,4.169922 c 1.015426,1.015426 2.65059,1.015426 3.666016,0 1.015426,-1.015426 1.015426,-2.65059 0,-3.666016 L 15,11.253906 C 15.269227,10.53766 15.407494,9.7788459 15.408203,9.0136719 15.408736,5.4872425 12.549867,2.6283733 9.0234375,2.6289062 Z"
         transform="scale(0.26458333)"
         sodipodi:nodetypes="cccccssccc" />
      <rect
         style="opacity:0;fill:#ffffff;fill-opacity:1;fill-rule:evenodd;stroke-width:0.705644"
         id="rect859-5"
         width="5.8208332"
         height="5.8208332"
         x="0"
         y="0"
         ry="0" />
    </g>
    <g
       id="inactive-center"
       transform="translate(9.3823232e-8,17.4625)">
      <path
         id="path849-2"
         style="opacity:0.75;fill:#bfbfbf;fill-opacity:1;fill-rule:evenodd;stroke-width:2.29841"
         d="M 9.0234375,2.6289062 A 6.3838008,6.3838008 0 0 0 2.640625,9.0136719 6.3838008,6.3838008 0 0 0 9.0234375,15.396484 6.3838008,6.3838008 0 0 0 11.367188,14.951172 l 4.167968,4.169922 c 1.015426,1.015426 2.65059,1.015426 3.666016,0 1.015426,-1.015426 1.015426,-2.65059 0,-3.666016 L 15,11.253906 A 6.3838008,6.3838008 0 0 0 15.408203,9.0136719 6.3838008,6.3838008 0 0 0 9.0234375,2.6289062 Z M 8.9960938,6.0917969 A 2.9011088,2.9011088 0 0 1 11.898438,8.9921875 2.9011088,2.9011088 0 0 1 8.9960938,11.894531 2.9011088,2.9011088 0 0 1 6.0957031,8.9921875 2.9011088,2.9011088 0 0 1 8.9960938,6.0917969 Z"
         transform="scale(0.26458333)" />
      <rect
         style="opacity:0;fill:#ffffff;fill-opacity:1;fill-rule:evenodd;stroke-width:0.705644"
         id="rect859-9"
         width="5.8208332"
         height="5.8208332"
         x="0"
         y="0"
         ry="0" />
    </g>
    <g
       id="deactivated-center"
       transform="translate(9.3823232e-8,23.283333)">
      <path
         id="path849-27"
         style="opacity:0.75;fill:#bfbfbf;fill-opacity:1;fill-rule:evenodd;stroke-width:2.29841"
         d="M 9.0234375,2.6289062 A 6.3838008,6.3838008 0 0 0 2.640625,9.0136719 6.3838008,6.3838008 0 0 0 9.0234375,15.396484 6.3838008,6.3838008 0 0 0 11.367188,14.951172 l 4.167968,4.169922 c 1.015426,1.015426 2.65059,1.015426 3.666016,0 1.015426,-1.015426 1.015426,-2.65059 0,-3.666016 L 15,11.253906 A 6.3838008,6.3838008 0 0 0 15.408203,9.0136719 6.3838008,6.3838008 0 0 0 9.0234375,2.6289062 Z M 8.9960938,6.0917969 A 2.9011088,2.9011088 0 0 1 11.898438,8.9921875 2.9011088,2.9011088 0 0 1 8.9960938,11.894531 2.9011088,2.9011088 0 0 1 6.0957031,8.9921875 2.9011088,2.9011088 0 0 1 8.9960938,6.0917969 Z"
         transform="scale(0.26458333)" />
      <rect
         style="opacity:0;fill:#ffffff;fill-opacity:1;fill-rule:evenodd;stroke-width:0.705644"
         id="rect859-0"
         width="5.8208332"
         height="5.8208332"
         x="0"
         y="0"
         ry="0" />
    </g>
  </g>
</svg>
